<svg version="1.1" xmlns="http://www.w3.org/2000/svg" xmlns:xlink="http://www.w3.org/1999/xlink" width="50.000000pt" height="50.000000pt" viewBox="0,0,256,256"><g fill="#ffffff" fill-rule="nonzero" stroke="none" stroke-width="1" stroke-linecap="butt" stroke-linejoin="miter" stroke-miterlimit="10" stroke-dasharray="" stroke-dashoffset="0" font-family="none" font-weight="none" font-size="none" text-anchor="none" style="mix-blend-mode: normal"><g transform="translate(0.05866,-12.06793) scale(5.12,5.12)"><g transform="translate(0,50) scale(0.1,-0.1)"><path d="M0,407c0,-8 52,-58 116,-111c86,-72 121,-95 135,-91c22,7 26,-10 4,-19c-25,-9 -46,4 -147,91c-53,46 -99,83 -102,83c-3,0 -6,-63 -6,-140v-140h198h199l23,-25c27,-29 57,-29 74,-3c8,13 8,23 -2,38c-8,13 -12,62 -12,145c0,69 -3,125 -6,125c-3,0 -34,-25 -69,-55c-34,-30 -65,-55 -69,-55c-18,0 1,23 69,81c41,35 75,69 75,76c0,10 -52,13 -240,13c-195,0 -240,-3 -240,-13zM376,183c82,-76 95,-95 73,-109c-13,-7 -179,153 -179,173c0,26 23,12 106,-64z"></path></g></g></g></svg>